<svg xmlns="http://www.w3.org/2000/svg" viewBox="0 0 180 180" width="180" height="180">
  <defs>
    <linearGradient id="bgGrad" x1="0%" y1="0%" x2="100%" y2="100%">
      <stop offset="0%" style="stop-color:#1a1a2e;stop-opacity:1" />
      <stop offset="100%" style="stop-color:#16213e;stop-opacity:1" />
    </linearGradient>
    <linearGradient id="starGrad" x1="0%" y1="0%" x2="100%" y2="100%">
      <stop offset="0%" style="stop-color:#f8d76b;stop-opacity:1" />
      <stop offset="100%" style="stop-color:#f0a500;stop-opacity:1" />
    </linearGradient>
    <linearGradient id="vaultGrad" x1="0%" y1="0%" x2="0%" y2="100%">
      <stop offset="0%" style="stop-color:#4fc3f7;stop-opacity:1" />
      <stop offset="100%" style="stop-color:#0288d1;stop-opacity:1" />
    </linearGradient>
  </defs>
  <rect width="180" height="180" rx="36" ry="36" fill="url(#bgGrad)" />
  <rect x="40" y="76" width="100" height="72" rx="10" ry="10" fill="url(#vaultGrad)" />
  <path d="M 64 76 A 26 26 0 0 1 116 76" fill="#0277bd" />
  <circle cx="90" cy="110" r="17" fill="#01579b" stroke="#4fc3f7" stroke-width="3" />
  <circle cx="90" cy="110" r="7" fill="#4fc3f7" />
  <line x1="90" y1="93" x2="90" y2="103" stroke="#4fc3f7" stroke-width="2.5" stroke-linecap="round" />
  <line x1="90" y1="117" x2="90" y2="127" stroke="#4fc3f7" stroke-width="2.5" stroke-linecap="round" />
  <line x1="73" y1="110" x2="83" y2="110" stroke="#4fc3f7" stroke-width="2.5" stroke-linecap="round" />
  <line x1="97" y1="110" x2="107" y2="110" stroke="#4fc3f7" stroke-width="2.5" stroke-linecap="round" />
  <polygon points="90,26 96,46 116,46 100,58 106,76 90,64 74,76 80,58 64,46 84,46"
    fill="url(#starGrad)" />
</svg>
